<mxfile host="app.diagrams.net" modified="2024-05-22T01:29:04.015Z" agent="Mozilla/5.0 (Macintosh; Intel Mac OS X 10_15_7) AppleWebKit/605.1.15 (KHTML, like Gecko) Version/17.4.1 Safari/605.1.15" version="24.4.4" etag="2g8g-1zn85Qqw8hBdXPB" type="github">
  <diagram name="Page-1" id="eoK3AasVs5m_47GQnDSI">
    <mxGraphModel>
      <root>
        <mxCell id="0" />
        <mxCell id="1" parent="0" />
      </root>
    </mxGraphModel>
  </diagram>
</mxfile>
